Coordinates
version=1
nRows=8
nColumns=36
inDegrees=yes

Units are S.I. units (second, meters, Newtons, ...)
If the header above contains a line with 'inDegrees', this indicates whether rotational values are in degrees (yes) or radians (no).

endheader
time	pelvis_tilt	pelvis_list	pelvis_rotation	pelvis_tx	pelvis_ty	pelvis_tz	hip_flexion_r	hip_adduction_r	hip_rotation_r	knee_angle_r	knee_angle_r_beta	ankle_angle_r	subtalar_angle_r	mtp_angle_r	hip_flexion_l	hip_adduction_l	hip_rotation_l	knee_angle_l	knee_angle_l_beta	ankle_angle_l	subtalar_angle_l	mtp_angle_l	lumbar_extension	lumbar_bending	lumbar_rotation	arm_flex_r	arm_add_r	arm_rot_r	elbow_flex_r	pro_sup_r	arm_flex_l	arm_add_l	arm_rot_l	elbow_flex_l	pro_sup_l
      3.25000000	    -25.20169356	     -5.09140009	     -3.10168785	      0.06757342	      0.97154279	     -0.04429007	     46.87205912	      2.68301081	     -6.58869480	     28.10094832	      0.49045407	     12.24963569	      2.67525591	     -7.49999987	     54.13559118	    -14.34687978	     -7.26376265	     42.56831264	      0.74295721	     19.37404684	     11.19016853	     -7.49999987	    -13.88854808	      4.43181573	     10.62434689	     16.09171480	    -19.54069127	      1.84226538	     51.07030301	     84.70441670	     20.88771744	    -12.43639958	     10.82713700	     57.31938576	     83.79008605
      3.26666670	    -24.38853196	     -5.59940913	     -2.83770892	      0.08050624	      0.96764277	     -0.05079569	     44.07756944	      3.29545017	     -6.40047772	     25.83100690	      0.45083612	     10.93669185	      1.81111440	     -7.49999987	     51.76790211	    -14.51599256	     -7.05756592	     41.22036994	      0.71943117	     18.93973084	     10.87150909	     -7.49999987	    -12.91442141	      5.09563680	     10.21951596	     14.74183168	    -18.63663107	      2.12529327	     48.35813266	     85.68289649	     19.58786283	    -11.52993759	     10.72472842	     54.26172125	     84.60254720
      3.28333330	    -22.84731239	     -6.34206040	     -2.39069341	      0.11182112	      0.97484897	     -0.05654811	     39.46530756	      4.12738628	     -5.96705776	     22.14879529	      0.38656940	      9.03285278	      0.62827572	     -7.49999987	     47.98498443	    -14.67389178	     -6.67588482	     39.25228699	      0.68508165	     18.27217414	     10.53328014	     -7.49999987	    -12.08755347	      6.21353713	      9.64678177	     12.53881077	    -17.67048804	      2.30961015	     44.95852474	     86.74861827	     17.40057291	    -10.41528844	     10.40828507	     50.10662297	     85.40091708
      3.30000000	    -21.87885027	     -6.82965063	     -1.78152979	      0.11187107	      0.97763663	     -0.05736472	     36.49721668	      4.47610239	     -5.97914113	     20.09276879	      0.35068497	      7.97108878	     -0.19460469	     -7.49999987	     45.60651118	    -14.66013003	     -6.21976183	     38.11823241	      0.66528866	     18.03640636	     10.29516552	     -7.49999987	    -11.25743484	      6.95338961	      8.66425958	     11.12246400	    -16.66345220	      2.72976803	     42.25301316	     87.87101499	     16.09701096	     -9.59677118	     10.60558596	     46.47785029	     86.33208988
      3.31666670	    -20.85288051	     -7.14881403	     -1.18236619	      0.12308034	      0.98740462	     -0.06257700	     33.38155448	      4.72395679	     -5.88140426	     17.62983197	      0.30769861	      6.74667856	     -1.13607816	     -7.49999987	     43.01374110	    -14.44872987	     -5.78201746	     36.63230208	      0.63935428	     17.39242600	      9.88538641	     -7.49999987	    -10.72230019	      7.52796660	      7.79469417	     10.05610562	    -15.90424422	      3.86288447	     39.09955047	     88.31222895	     14.78938460	     -8.71321640	     10.94783326	     41.82059002	     86.58528700
      3.33333330	    -18.99679665	     -7.08348782	     -0.43764937	      0.13685428	      1.00333661	     -0.06938780	     28.75458840	      4.62267557	     -5.63799647	     14.07926509	      0.24572953	      4.91592638	     -1.57714764	     -7.49999987	     38.83450128	    -13.78071275	     -5.66502531	     34.05377175	      0.59435044	     16.19608090	      9.55583734	     -7.49999987	    -11.40965578	      7.66725295	      6.75267686	      9.34421278	    -15.37539618	      5.37888193	     36.63204302	     89.48940904	     13.76635723	     -8.12656207	     11.45876659	     37.37996576	     87.40974010
      3.35000000	    -18.52763413	     -6.90035229	      0.04495598	      0.13560880	      1.00477589	     -0.06892077	     26.82112857	      4.34536761	     -5.67704292	     12.46235800	      0.21750918	      4.07068101	     -1.96711922	     -7.49999987	     37.04271674	    -13.19998619	     -5.59835982	     32.65263070	      0.56989592	     15.60793386	      9.48798524	     -7.49999987	    -10.88408528	      7.57210352	      5.65409594	      8.60494366	    -14.55588813	      5.79866910	     35.15003678	     90.34548866	     12.60400054	     -7.73662854	     11.48014026	     33.71738981	     88.08991275
      3.36666670	    -18.70780681	     -6.89509490	      0.21718794	      0.13639654	      0.99954819	     -0.06836598	     26.57087730	      4.26878214	     -5.60378027	     12.38009068	      0.21607334	      4.54596429	     -2.48054609	     -7.49999987	     36.81768138	    -12.95755585	     -5.34382529	     32.53711025	      0.56787970	     15.38210436	      8.52801338	     -7.49999987	     -9.61513810	      7.43176145	      5.06197382	      7.86853563	    -14.08434633	      7.17150814	     34.08442134	     88.72953648	     11.85808391	     -7.24904905	     11.38669527	     30.17464036	     86.41320457
